<svg xmlns="http://www.w3.org/2000/svg" viewBox="0 0 128 128">
  <defs>
    <linearGradient id="ga" x1="0" y1="0" x2="1" y2="1"><stop offset="0" stop-color="#1F2229"/><stop offset="1" stop-color="#050608"/></linearGradient>
  </defs>
  <rect width="128" height="128" rx="30" fill="url(#ga)"/>
  <rect x="1.5" y="1.5" width="125" height="125" rx="28.5" fill="none" stroke="#fff" stroke-opacity=".12" stroke-width="3"/>
  <g transform="translate(64 64) scale(1.22) translate(-64 -64)">
  <g fill="none" stroke="#fff" stroke-width="12" stroke-linecap="round" stroke-linejoin="round">
    <path d="M28 48V34a6 6 0 0 1 6-6h14"/><path d="M80 28h14a6 6 0 0 1 6 6v14"/>
    <path d="M28 80v14a6 6 0 0 0 6 6h14"/>
  </g>
  <path d="M62 60l38 14-16 5 11 17-8 5-11-17-11 12z" fill="#4CFF3F" stroke="#4CFF3F" stroke-width="4" stroke-linejoin="round"/>
  </g>
</svg>
